<?xml version="1.0" encoding="UTF-8" standalone="no"?>
<svg
   xmlns:dc="http://purl.org/dc/elements/1.1/"
   xmlns:cc="http://creativecommons.org/ns#"
   xmlns:rdf="http://www.w3.org/1999/02/22-rdf-syntax-ns#"
   xmlns:svg="http://www.w3.org/2000/svg"
   xmlns="http://www.w3.org/2000/svg"
   xmlns:sodipodi="http://sodipodi.sourceforge.net/DTD/sodipodi-0.dtd"
   xmlns:inkscape="http://www.inkscape.org/namespaces/inkscape"
   id="svg2"
   style="clip-rule:evenodd;fill-rule:evenodd;stroke-linejoin:round;stroke-miterlimit:1.41420996"
   xml:space="preserve"
   version="1.1"
   viewBox="0 0 60 60"
   height="60"
   width="60"
   inkscape:version="0.91 r13725"
   sodipodi:docname="atm.svg"><sodipodi:namedview
     pagecolor="#ffffff"
     bordercolor="#666666"
     borderopacity="1"
     objecttolerance="10"
     gridtolerance="10"
     guidetolerance="10"
     inkscape:pageopacity="0"
     inkscape:pageshadow="2"
     inkscape:window-width="1649"
     inkscape:window-height="1069"
     id="namedview19"
     showgrid="false"
     inkscape:zoom="5.5625733"
     inkscape:cx="10.639262"
     inkscape:cy="37.744295"
     inkscape:window-x="1442"
     inkscape:window-y="405"
     inkscape:window-maximized="0"
     inkscape:current-layer="g2348" /><metadata
     id="metadata35"><rdf:RDF><cc:Work
         rdf:about=""><dc:format>image/svg+xml</dc:format><dc:type
           rdf:resource="http://purl.org/dc/dcmitype/StillImage" /><dc:title /></cc:Work></rdf:RDF></metadata><defs
     id="defs33" /><g
     transform="matrix(0.19997959,0,0,0.19995118,0.00612242,3.3238395e-4)"
     id="Background_circle"><g
       id="g5"><g
         id="g7"><g
           id="g9"><circle
             id="circle11"
             style="fill:#ffffff"
             r="150"
             cy="150"
             cx="150" /><path
             id="path13"
             
             style="fill:None" /></g></g></g></g><g
     id="g2348"
     transform="matrix(20.299892,0,0,20.757616,28.738101,29.359515)"><path
       inkscape:connector-curvature="0"
       id="path2341"
       d="m -0.57518956,-0.83795069 0,0.21003421 0.42006839,0 0.22976117,0.47460762 0.22860076,-0.47460762 0.41890798,0 0,-0.21003421 0.26805471,0.26689429 -0.26805471,0.26689428 0,-0.19030722 -0.3040274,0 -0.24832773,0.53262812 0.24832773,0.53262819 0.3040274,0 0,-0.19030726 0.26805471,0.2657339 -0.26805471,0.26689429 0,-0.19030723 -0.41890798,0 L 0.07464,0.2273056 l -0.22976117,0.49549507 -0.42006839,0 0,0.19030723 -0.26689423,-0.26689429 0.26689423,-0.2657339 0,0.19030726 0.28662125,0 0.26689429,-0.53262819 -0.26689429,-0.53262812 -0.28662125,0 0,0.19030722 -0.26689423,-0.26689428 0.26689423,-0.26689429"
       style="fill:None;fill-opacity:1;stroke:none;stroke-width:0.001" /></g></svg>