<?xml version="1.0" encoding="UTF-8" standalone="no"?>
<svg
   xmlns:dc="http://purl.org/dc/elements/1.1/"
   xmlns:cc="http://creativecommons.org/ns#"
   xmlns:rdf="http://www.w3.org/1999/02/22-rdf-syntax-ns#"
   xmlns:svg="http://www.w3.org/2000/svg"
   xmlns="http://www.w3.org/2000/svg"
   xmlns:sodipodi="http://sodipodi.sourceforge.net/DTD/sodipodi-0.dtd"
   xmlns:inkscape="http://www.inkscape.org/namespaces/inkscape"
   id="svg320"
   style="clip-rule:evenodd;fill-rule:evenodd;stroke-linejoin:round;stroke-miterlimit:1.41420996"
   xml:space="preserve"
   version="1.1"
   viewBox="0 0 60 60"
   height="60"
   width="60"
   inkscape:version="0.91 r13725"
   sodipodi:docname="atm.svg"><sodipodi:namedview
     pagecolor="#ffffff"
     bordercolor="#666666"
     borderopacity="1"
     objecttolerance="10"
     gridtolerance="10"
     guidetolerance="10"
     inkscape:pageopacity="0"
     inkscape:pageshadow="2"
     inkscape:window-width="1587"
     inkscape:window-height="993"
     id="namedview19"
     showgrid="false"
     inkscape:zoom="3.9333333"
     inkscape:cx="30"
     inkscape:cy="30"
     inkscape:window-x="150"
     inkscape:window-y="68"
     inkscape:window-maximized="0"
     inkscape:current-layer="svg320" /><metadata
     id="metadata326"><rdf:RDF><cc:Work
         rdf:about=""><dc:format>image/svg+xml</dc:format><dc:type
           rdf:resource="http://purl.org/dc/dcmitype/StillImage" /><dc:title /></cc:Work></rdf:RDF></metadata><defs
     id="defs324" /><g
     transform="matrix(0.19993327,0,0,0.19990235,0.01465042,0.01464815)"
     id="g318"><g
       id="Background"><g
         id="g297"><path
           id="path293"
           style="fill:#ffffff"
           d="M 300,30.271 C 300,13.564 286.436,0 269.729,0 H 30.271 C 13.564,0 0,13.564 0,30.271 V 269.729 C 0,286.436 13.564,300 30.271,300 H 269.729 C 286.436,300 300,286.436 300,269.729 Z" /><path
           id="path295"
           
           style="fill:None" /></g></g></g><path
     inkscape:connector-curvature="0"
     id="path2341"
     d="m 16.56607,11.317624 0,4.35981 8.527343,0 4.664127,9.851722 4.640571,-9.851722 8.503786,0 0,-4.35981 5.441482,5.540089 -5.441482,5.540089 0,-3.950324 -6.171723,0 -5.041026,11.05609 5.041026,11.056091 6.171723,0 0,-3.950325 5.441482,5.516003 -5.441482,5.540089 0,-3.950325 -8.503786,0 -4.640571,-10.285296 -4.664127,10.285296 -8.527343,0 0,3.950325 -5.417924,-5.540089 5.417924,-5.516003 0,3.950325 5.81838,0 5.417926,-11.056091 -5.417926,-11.05609 -5.81838,0 0,3.950324 -5.417924,-5.540089 5.417924,-5.540089"
     style="clip-rule:evenodd;fill:None;fill-opacity:1;fill-rule:evenodd;stroke:none;stroke-width:0.001;stroke-linejoin:round;stroke-miterlimit:1.41420996" /></svg>