<?xml version="1.0" encoding="UTF-8" standalone="no"?>
<svg
   xmlns:dc="http://purl.org/dc/elements/1.1/"
   xmlns:cc="http://creativecommons.org/ns#"
   xmlns:rdf="http://www.w3.org/1999/02/22-rdf-syntax-ns#"
   xmlns:svg="http://www.w3.org/2000/svg"
   xmlns="http://www.w3.org/2000/svg"
   id="svg2"
   style="clip-rule:evenodd;fill-rule:evenodd;stroke-linejoin:round;stroke-miterlimit:1.41420996"
   xml:space="preserve"
   version="1.1"
   viewBox="0 0 60 60"
   height="60"
   width="60"><metadata
     id="metadata37"><rdf:RDF><cc:Work
         rdf:about=""><dc:format>image/svg+xml</dc:format><dc:type
           rdf:resource="http://purl.org/dc/dcmitype/StillImage" /><dc:title></dc:title></cc:Work></rdf:RDF></metadata><defs
     id="defs35" /><g
     transform="matrix(0.19997959,0,0,0.19995118,0.00612242,3.3238395e-4)"
     id="Background_circle"><g
       id="g5"><g
         id="g7"><g
           id="g9"><circle
             id="circle11"
             style="fill:#ffffff"
             r="150"
             cy="150"
             cx="150" /><path
             id="path13"
             
             style="fill:None" /></g></g><g
         id="g15"><g
           id="g17"><g
             id="g19"
             transform="matrix(0,-1.75127,1.42064,0,22.4725,513.322)"><path
               id="path21"
               style="fill:None"
               d="M 207.484,99.968 236.031,150 178.937,150 207.484,99.968 Z" /></g><g
             id="g23"
             transform="matrix(0,-0.656744,0.532754,0,139.382,286.225)"><path
               id="path25"
               style="fill:#ffffff"
               d="M 207.484,99.968 236.031,150 178.937,150 207.484,99.968 Z" /></g></g><g
           id="g27"><path
             id="path29"
             style="fill:None"
             d="m 178.937,109.509 c 0,-5.266 -4.275,-9.541 -9.541,-9.541 l -94.458,0 c -5.265,0 -9.54,4.275 -9.54,9.541 l 0,80.905 c 0,5.266 4.275,9.541 9.54,9.541 l 94.458,0 c 5.266,0 9.541,-4.275 9.541,-9.541 l 0,-80.905 z" /><rect
             id="rect31"
             style="fill:#ffffff"
             height="68.193001"
             width="84.647003"
             y="115.903"
             x="79.844002" /></g></g></g></g></svg>
