<?xml version="1.0" encoding="UTF-8" standalone="no"?>
<svg
   xmlns:dc="http://purl.org/dc/elements/1.1/"
   xmlns:cc="http://creativecommons.org/ns#"
   xmlns:rdf="http://www.w3.org/1999/02/22-rdf-syntax-ns#"
   xmlns:svg="http://www.w3.org/2000/svg"
   xmlns="http://www.w3.org/2000/svg"
   id="svg320"
   style="clip-rule:evenodd;fill-rule:evenodd;stroke-linejoin:round;stroke-miterlimit:1.41420996"
   xml:space="preserve"
   version="1.1"
   viewBox="0 0 60 60"
   height="60"
   width="60"><metadata
     id="metadata326"><rdf:RDF><cc:Work
         rdf:about=""><dc:format>image/svg+xml</dc:format><dc:type
           rdf:resource="http://purl.org/dc/dcmitype/StillImage" /><dc:title></dc:title></cc:Work></rdf:RDF></metadata><defs
     id="defs324" /><g
     transform="matrix(0.19993327,0,0,0.19990235,0.01465042,0.01464815)"
     id="g318"><g
       id="Background"><g
         id="g297"><path
           id="path293"
           style="fill:#ffffff"
           d="M 300,30.271 C 300,13.564 286.436,0 269.729,0 H 30.271 C 13.564,0 0,13.564 0,30.271 V 269.729 C 0,286.436 13.564,300 30.271,300 H 269.729 C 286.436,300 300,286.436 300,269.729 Z" /><path
           id="path295"
           d="m 150.485,0.001 c 49.5244,-0.30805092 97.99005,26.13918 124.885,67.66 29.14949,43.41669 32.66869,102.35469 9.029,148.98 -22.3226,45.72399 -69.26524,78.27982 -120.017,82.677 C 116.79963,304.27157 67.626954,284.53159 36.597,248.141 4.2284143,211.43134 -7.8772602,158.34647 5.079,111.186 18.20087,60.591626 59.782145,18.758853 110.292,5.321 c 13.07378,-3.5887368 26.6371,-5.36778112 40.193,-5.32 z m -0.919,16 C 104.07954,15.682674 59.676029,40.73106 36.035,79.522 10.237529,120.258 9.3382219,175.08668 33.754,216.66 c 22.507056,39.83833 66.53845,66.428 112.351,67.284 44.86675,1.74378 89.5149,-21.18229 114.552,-58.394 27.38615,-39.18451 30.93913,-93.31402 9.052,-135.793 C 249.0838,48.105271 205.50868,18.954337 159.041,16.3 c -3.15359,-0.209033 -6.31449,-0.309606 -9.475,-0.299 z"
           style="fill:#000000" /></g></g><g
       id="g316"><g
         id="g308"><g
           id="g302"
           transform="matrix(0,-1.75127,1.42064,0,22.4725,513.322)"><path
             id="path300"
             style="fill:#000000"
             d="M 207.484,99.968 236.031,150 h -57.094 z" /></g><g
           id="g306"
           transform="matrix(0,-0.656744,0.532754,0,139.382,286.225)"><path
             id="path304"
             style="fill:#ffffff"
             d="M 207.484,99.968 236.031,150 h -57.094 z" /></g></g><g
         id="g314"><path
           id="path310"
           style="fill:#000000"
           d="m 178.937,109.509 c 0,-5.266 -4.275,-9.541 -9.541,-9.541 H 74.938 c -5.265,0 -9.54,4.275 -9.54,9.541 v 80.905 c 0,5.266 4.275,9.541 9.54,9.541 h 94.458 c 5.266,0 9.541,-4.275 9.541,-9.541 z" /><rect
           id="rect312"
           style="fill:#ffffff"
           height="68.193001"
           width="84.647003"
           y="115.903"
           x="79.844002" /></g></g></g></svg>
