<?xml version="1.0" encoding="UTF-8" standalone="no"?>
<svg
   xmlns:dc="http://purl.org/dc/elements/1.1/"
   xmlns:cc="http://creativecommons.org/ns#"
   xmlns:rdf="http://www.w3.org/1999/02/22-rdf-syntax-ns#"
   xmlns:svg="http://www.w3.org/2000/svg"
   xmlns="http://www.w3.org/2000/svg"
   id="svg320"
   style="clip-rule:evenodd;fill-rule:evenodd;stroke-linejoin:round;stroke-miterlimit:1.41420996"
   xml:space="preserve"
   version="1.1"
   viewBox="0 0 60 60"
   height="60"
   width="60"><metadata
     id="metadata326"><rdf:RDF><cc:Work
         rdf:about=""><dc:format>image/svg+xml</dc:format><dc:type
           rdf:resource="http://purl.org/dc/dcmitype/StillImage" /><dc:title></dc:title></cc:Work></rdf:RDF></metadata><defs
     id="defs324" /><g
     transform="matrix(0.19993327,0,0,0.19990235,0.01465042,0.01464815)"
     id="g318"><g
       id="Background"><g
         id="g297"><path
           id="path293"
           style="fill:#ffffff"
           d="M 300,30.271 C 300,13.564 286.436,0 269.729,0 H 30.271 C 13.564,0 0,13.564 0,30.271 V 269.729 C 0,286.436 13.564,300 30.271,300 H 269.729 C 286.436,300 300,286.436 300,269.729 Z" /><path
           id="path295"
           
           style="fill:None" /></g></g><g
       id="g316"><g
         id="g308"><g
           id="g302"
           transform="matrix(0,-1.75127,1.42064,0,22.4725,513.322)"><path
             id="path300"
             style="fill:None"
             d="M 207.484,99.968 236.031,150 h -57.094 z" /></g><g
           id="g306"
           transform="matrix(0,-0.656744,0.532754,0,139.382,286.225)"><path
             id="path304"
             style="fill:#ffffff"
             d="M 207.484,99.968 236.031,150 h -57.094 z" /></g></g><g
         id="g314"><path
           id="path310"
           style="fill:None"
           d="m 178.937,109.509 c 0,-5.266 -4.275,-9.541 -9.541,-9.541 H 74.938 c -5.265,0 -9.54,4.275 -9.54,9.541 v 80.905 c 0,5.266 4.275,9.541 9.54,9.541 h 94.458 c 5.266,0 9.541,-4.275 9.541,-9.541 z" /><rect
           id="rect312"
           style="fill:#ffffff"
           height="68.193001"
           width="84.647003"
           y="115.903"
           x="79.844002" /></g></g></g></svg>
